<svg width="13" height="23" viewBox="0 0 13 23" fill="none" xmlns="http://www.w3.org/2000/svg">
<path fill-rule="evenodd" clip-rule="evenodd" d="M4.75736 2.25736C5.88258 1.13214 7.4087 0.5 9 0.5H12C12.5523 0.5 13 0.947715 13 1.5V5.5C13 6.05228 12.5523 6.5 12 6.5H9V8.5H12C12.3079 8.5 12.5987 8.64187 12.7882 8.88459C12.9777 9.1273 13.0448 9.44379 12.9701 9.74254L11.9701 13.7425C11.8589 14.1877 11.4589 14.5 11 14.5H9V21.5C9 22.0523 8.55228 22.5 8 22.5H4C3.44772 22.5 3 22.0523 3 21.5V14.5H1C0.447715 14.5 0 14.0523 0 13.5V9.5C0 8.94772 0.447715 8.5 1 8.5H3V6.5C3 4.9087 3.63214 3.38258 4.75736 2.25736ZM9 2.5C7.93913 2.5 6.92172 2.92143 6.17157 3.67157C5.42143 4.42172 5 5.43913 5 6.5V9.5C5 10.0523 4.55228 10.5 4 10.5H2V12.5H4C4.55228 12.5 5 12.9477 5 13.5V20.5H7V13.5C7 12.9477 7.44772 12.5 8 12.5H10.2192L10.7192 10.5H8C7.44772 10.5 7 10.0523 7 9.5V6.5C7 5.96957 7.21071 5.46086 7.58579 5.08579C7.96086 4.71071 8.46957 4.5 9 4.5H11V2.5H9Z" fill="#4E555B"/>
</svg>
