<svg width="22" height="23" viewBox="0 0 22 23" fill="none" xmlns="http://www.w3.org/2000/svg">
<path fill-rule="evenodd" clip-rule="evenodd" d="M6 2.5C3.79086 2.5 2 4.29086 2 6.5V16.5C2 18.7091 3.79086 20.5 6 20.5H16C18.2091 20.5 20 18.7091 20 16.5V6.5C20 4.29086 18.2091 2.5 16 2.5H6ZM0 6.5C0 3.18629 2.68629 0.5 6 0.5H16C19.3137 0.5 22 3.18629 22 6.5V16.5C22 19.8137 19.3137 22.5 16 22.5H6C2.68629 22.5 0 19.8137 0 16.5V6.5ZM11.4833 8.48918C10.8591 8.39662 10.2217 8.50324 9.66155 8.79386C9.10145 9.08449 8.64725 9.54432 8.36356 10.108C8.07986 10.6716 7.98112 11.3103 8.08137 11.9333C8.18161 12.5563 8.47575 13.1319 8.92194 13.5781C9.36814 14.0242 9.94366 14.3184 10.5667 14.4186C11.1896 14.5189 11.8284 14.4201 12.392 14.1364C12.9557 13.8527 13.4155 13.3985 13.7061 12.8384C13.9968 12.2783 14.1034 11.6409 14.0108 11.0167C13.9164 10.38 13.6197 9.79054 13.1646 9.33541C12.7095 8.88028 12.12 8.58359 11.4833 8.48918ZM8.74041 7.01862C9.67391 6.53424 10.7364 6.35655 11.7767 6.51081C12.8378 6.66817 13.8202 7.16264 14.5788 7.9212C15.3374 8.67975 15.8318 9.66216 15.9892 10.7233C16.1434 11.7636 15.9658 12.8261 15.4814 13.7596C14.997 14.6931 14.2306 15.4501 13.2912 15.9229C12.3518 16.3957 11.2872 16.5603 10.2489 16.3932C9.21059 16.2261 8.25138 15.7359 7.50773 14.9923C6.76408 14.2486 6.27385 13.2894 6.10677 12.2511C5.93969 11.2128 6.10426 10.1482 6.57709 9.20878C7.04992 8.26938 7.80691 7.50299 8.74041 7.01862ZM16.5 5C15.9477 5 15.5 5.44772 15.5 6C15.5 6.55228 15.9477 7 16.5 7H16.51C17.0623 7 17.51 6.55228 17.51 6C17.51 5.44772 17.0623 5 16.51 5H16.5Z" fill="#4E555B"/>
</svg>
