<svg width="1961" height="274" viewBox="0 0 1961 274" fill="none" xmlns="http://www.w3.org/2000/svg">
<rect x="986.5" y="56.5" width="971" height="214" fill="#E85656" stroke="#2B3137" stroke-width="7"/>
<path d="M1082.35 208.801H1064L1091.96 124.157H1114.03L1141.96 208.801H1123.61L1103.32 143.5H1102.68L1082.35 208.801ZM1081.21 175.531H1124.56V189.5H1081.21V175.531Z" fill="white"/>
<path d="M1201.61 151.518C1201.06 149.506 1200.28 147.729 1199.28 146.186C1198.28 144.616 1197.05 143.293 1195.6 142.219C1194.18 141.116 1192.54 140.276 1190.7 139.697C1188.88 139.119 1186.86 138.829 1184.65 138.829C1180.51 138.829 1176.87 139.904 1173.73 142.053C1170.62 144.202 1168.19 147.33 1166.45 151.435C1164.71 155.513 1163.84 160.5 1163.84 166.397C1163.84 172.293 1164.7 177.308 1166.41 181.441C1168.13 185.574 1170.55 188.729 1173.69 190.905C1176.83 193.055 1180.53 194.129 1184.8 194.129C1188.68 194.129 1191.99 193.413 1194.73 191.98C1197.5 190.52 1199.61 188.467 1201.06 185.822C1202.54 183.177 1203.28 180.049 1203.28 176.44L1206.76 176.977H1185.87V163.504H1219.77V174.167C1219.77 181.606 1218.27 187.999 1215.26 193.344C1212.25 198.662 1208.11 202.767 1202.84 205.66C1197.57 208.526 1191.53 209.959 1184.73 209.959C1177.13 209.959 1170.46 208.209 1164.71 204.71C1158.96 201.183 1154.48 196.182 1151.26 189.707C1148.07 183.204 1146.48 175.489 1146.48 166.562C1146.48 159.701 1147.43 153.584 1149.33 148.211C1151.25 142.811 1153.94 138.237 1157.39 134.49C1160.85 130.743 1164.87 127.891 1169.46 125.934C1174.05 123.978 1179.02 123 1184.37 123C1188.96 123 1193.23 123.703 1197.18 125.108C1201.14 126.486 1204.65 128.442 1207.71 130.977C1210.79 133.512 1213.31 136.529 1215.26 140.028C1217.21 143.5 1218.46 147.33 1219.02 151.518H1201.61Z" fill="white"/>
<path d="M1244.09 208.801H1225.74L1253.71 124.157H1275.78L1303.7 208.801H1285.35L1265.06 143.5H1264.42L1244.09 208.801ZM1242.95 175.531H1286.3V189.5H1242.95V175.531Z" fill="white"/>
<path d="M1330.58 124.157V208.801H1313.45V124.157H1330.58Z" fill="white"/>
<path d="M1412.42 124.157V208.801H1397.63L1362.39 155.527H1361.79V208.801H1344.67V124.157H1359.7L1394.66 177.39H1395.37V124.157H1412.42Z" fill="white"/>
<path d="M1470.52 148.501C1470.2 145.167 1468.84 142.577 1466.44 140.731C1464.04 138.885 1460.79 137.962 1456.67 137.962C1453.88 137.962 1451.52 138.375 1449.59 139.201C1447.67 140 1446.19 141.116 1445.16 142.549C1444.16 143.982 1443.66 145.608 1443.66 147.426C1443.61 148.942 1443.91 150.264 1444.57 151.394C1445.25 152.524 1446.19 153.502 1447.38 154.328C1448.56 155.127 1449.93 155.83 1451.49 156.436C1453.05 157.015 1454.71 157.511 1456.47 157.924L1463.75 159.743C1467.29 160.569 1470.53 161.671 1473.48 163.049C1476.44 164.427 1478.99 166.121 1481.16 168.133C1483.32 170.144 1484.99 172.514 1486.18 175.241C1487.39 177.969 1488.01 181.096 1488.04 184.623C1488.01 189.803 1486.75 194.295 1484.24 198.097C1481.76 201.872 1478.18 204.806 1473.48 206.9C1468.81 208.967 1463.18 210 1456.59 210C1450.05 210 1444.36 208.953 1439.51 206.859C1434.68 204.765 1430.91 201.665 1428.19 197.56C1425.5 193.427 1424.09 188.315 1423.96 182.226H1440.53C1440.72 185.064 1441.5 187.434 1442.87 189.335C1444.27 191.209 1446.12 192.628 1448.44 193.592C1450.79 194.529 1453.44 194.997 1456.39 194.997C1459.3 194.997 1461.81 194.556 1463.95 193.675C1466.11 192.793 1467.79 191.567 1468.97 189.996C1470.16 188.426 1470.75 186.621 1470.75 184.582C1470.75 182.681 1470.21 181.083 1469.13 179.788C1468.08 178.493 1466.52 177.39 1464.46 176.481C1462.43 175.572 1459.94 174.745 1456.99 174.001L1448.17 171.687C1441.34 169.951 1435.95 167.237 1431.99 163.545C1428.04 159.853 1426.07 154.879 1426.1 148.625C1426.07 143.5 1427.38 139.022 1430.01 135.192C1432.68 131.362 1436.33 128.373 1440.97 126.224C1445.61 124.075 1450.88 123 1456.79 123C1462.8 123 1468.05 124.075 1472.53 126.224C1477.04 128.373 1480.55 131.362 1483.05 135.192C1485.56 139.022 1486.85 143.458 1486.93 148.501H1470.52Z" fill="white"/>
<path d="M1496.47 138.912V124.157H1563V138.912H1538.2V208.801H1521.27V138.912H1496.47Z" fill="white"/>
<path d="M1618 210V123H1678.96V138.166H1637.13V158.896H1675.82V174.062H1637.13V194.834H1679.14V210H1618Z" fill="white"/>
<path d="M1710.51 123L1732.38 189.1H1733.22L1755.13 123H1776.33L1745.15 210H1720.5L1689.26 123H1710.51Z" fill="white"/>
<path d="M1806.35 123V210H1787.22V123H1806.35Z" fill="white"/>
<path d="M1822.09 210V123H1841.21V194.834H1880V210H1822.09Z" fill="white"/>
<rect x="3.5" y="3.5" width="937.512" height="216.478" fill="white" stroke="#2B3137" stroke-width="7"/>
<rect x="29.5" y="29.5" width="935" height="220" fill="white" stroke="#2B3137" stroke-width="7"/>
<rect x="56.5" y="56.5" width="940" height="214" fill="white" stroke="#2B3137" stroke-width="7"/>
<path d="M193.477 213.677H161V120.277H193.745C202.961 120.277 210.894 122.147 217.544 125.886C224.195 129.596 229.309 134.932 232.888 141.894C236.497 148.857 238.301 157.187 238.301 166.886C238.301 176.615 236.497 184.976 232.888 191.969C229.309 198.962 224.165 204.328 217.455 208.068C210.774 211.808 202.782 213.677 193.477 213.677ZM180.37 196.758H192.672C198.398 196.758 203.214 195.724 207.121 193.657C211.058 191.559 214.01 188.321 215.978 183.943C217.977 179.534 218.976 173.848 218.976 166.886C218.976 159.984 217.977 154.344 215.978 149.966C214.01 145.588 211.073 142.365 207.166 140.298C203.259 138.23 198.443 137.197 192.717 137.197H180.37V196.758Z" fill="#2B3137"/>
<path d="M336.839 166.977C336.839 177.162 334.946 185.828 331.158 192.972C327.4 200.117 322.271 205.575 315.769 209.345C309.298 213.085 302.021 214.954 293.939 214.954C285.797 214.954 278.491 213.069 272.019 209.299C265.548 205.529 260.433 200.072 256.675 192.927C252.918 185.782 251.039 177.132 251.039 166.977C251.039 156.792 252.918 148.127 256.675 140.982C260.433 133.837 265.548 128.395 272.019 124.655C278.491 120.885 285.797 119 293.939 119C302.021 119 309.298 120.885 315.769 124.655C322.271 128.395 327.4 133.837 331.158 140.982C334.946 148.127 336.839 156.792 336.839 166.977ZM317.201 166.977C317.201 160.38 316.232 154.816 314.293 150.286C312.385 145.755 309.686 142.32 306.196 139.979C302.707 137.638 298.621 136.467 293.939 136.467C289.257 136.467 285.171 137.638 281.682 139.979C278.193 142.32 275.479 145.755 273.54 150.286C271.632 154.816 270.677 160.38 270.677 166.977C270.677 173.575 271.632 179.139 273.54 183.669C275.479 188.199 278.193 191.635 281.682 193.976C285.171 196.317 289.257 197.487 293.939 197.487C298.621 197.487 302.707 196.317 306.196 193.976C309.686 191.635 312.385 188.199 314.293 183.669C316.232 179.139 317.201 173.575 317.201 166.977Z" fill="#2B3137"/>
<path d="M427.818 120.277V213.677H411.087L371.229 154.892H370.558V213.677H351.188V120.277H368.187L407.732 179.017H408.537V120.277H427.818Z" fill="#2B3137"/>
<path d="M459.612 213.677H438.856L470.483 120.277H495.445L527.027 213.677H506.27L483.322 141.62H482.606L459.612 213.677ZM458.315 176.965H507.344V192.38H458.315V176.965Z" fill="#2B3137"/>
<path d="M523.37 136.558V120.277H598.613V136.558H570.565V213.677H551.418V136.558H523.37Z" fill="#2B3137"/>
<path d="M630.374 120.277V213.677H611.004V120.277H630.374Z" fill="#2B3137"/>
<path d="M730.501 166.977C730.501 177.162 728.607 185.828 724.82 192.972C721.062 200.117 715.932 205.575 709.431 209.345C702.96 213.085 695.683 214.954 687.601 214.954C679.459 214.954 672.152 213.069 665.681 209.299C659.209 205.529 654.095 200.072 650.337 192.927C646.579 185.782 644.701 177.132 644.701 166.977C644.701 156.792 646.579 148.127 650.337 140.982C654.095 133.837 659.209 128.395 665.681 124.655C672.152 120.885 679.459 119 687.601 119C695.683 119 702.96 120.885 709.431 124.655C715.932 128.395 721.062 133.837 724.82 140.982C728.607 148.127 730.501 156.792 730.501 166.977ZM710.863 166.977C710.863 160.38 709.893 154.816 707.955 150.286C706.046 145.755 703.347 142.32 699.858 139.979C696.369 137.638 692.283 136.467 687.601 136.467C682.919 136.467 678.833 137.638 675.344 139.979C671.854 142.32 669.14 145.755 667.202 150.286C665.293 154.816 664.339 160.38 664.339 166.977C664.339 173.575 665.293 179.139 667.202 183.669C669.14 188.199 671.854 191.635 675.344 193.976C678.833 196.317 682.919 197.487 687.601 197.487C692.283 197.487 696.369 196.317 699.858 193.976C703.347 191.635 706.046 188.199 707.955 183.669C709.893 179.139 710.863 173.575 710.863 166.977Z" fill="#2B3137"/>
<path d="M821.479 120.277V213.677H804.749L764.89 154.892H764.219V213.677H744.849V120.277H761.848L801.394 179.017H802.199V120.277H821.479Z" fill="#2B3137"/>
<path d="M887.183 147.139C886.825 143.46 885.289 140.602 882.575 138.565C879.861 136.528 876.178 135.509 871.526 135.509C868.365 135.509 865.695 135.965 863.518 136.877C861.341 137.759 859.671 138.991 858.508 140.571C857.375 142.152 856.808 143.946 856.808 145.953C856.749 147.625 857.091 149.085 857.837 150.331C858.612 151.578 859.671 152.657 861.013 153.569C862.355 154.451 863.906 155.226 865.666 155.895C867.425 156.533 869.304 157.081 871.302 157.537L879.533 159.543C883.529 160.456 887.198 161.672 890.538 163.192C893.878 164.712 896.771 166.582 899.216 168.801C901.662 171.021 903.555 173.636 904.897 176.646C906.269 179.656 906.97 183.106 907 186.998C906.97 192.714 905.539 197.67 902.706 201.866C899.902 206.031 895.846 209.269 890.538 211.58C885.259 213.86 878.892 215 871.436 215C864.04 215 857.598 213.845 852.111 211.534C846.653 209.223 842.389 205.803 839.317 201.273C836.275 196.712 834.68 191.072 834.53 184.353H853.274C853.483 187.485 854.363 190.099 855.913 192.197C857.494 194.265 859.597 195.83 862.221 196.895C864.875 197.928 867.872 198.445 871.213 198.445C874.493 198.445 877.341 197.959 879.757 196.986C882.202 196.013 884.096 194.66 885.438 192.927C886.78 191.194 887.451 189.202 887.451 186.953C887.451 184.855 886.84 183.091 885.617 181.662C884.424 180.233 882.665 179.017 880.338 178.014C878.042 177.01 875.224 176.098 871.884 175.277L861.908 172.724C854.184 170.808 848.085 167.813 843.612 163.739C839.138 159.665 836.916 154.177 836.946 147.276C836.916 141.62 838.393 136.68 841.375 132.454C844.387 128.228 848.517 124.929 853.766 122.557C859.015 120.186 864.98 119 871.66 119C878.46 119 884.394 120.186 889.464 122.557C894.564 124.929 898.53 128.228 901.364 132.454C904.197 136.68 905.658 141.575 905.747 147.139H887.183Z" fill="#2B3137"/>
</svg>
