<svg width="22" height="19" viewBox="0 0 22 19" fill="none" xmlns="http://www.w3.org/2000/svg">
<path fill-rule="evenodd" clip-rule="evenodd" d="M2.10666 3.05394C2.27205 2.72692 2.61212 2.5 3.00008 2.5H19.0001C19.388 2.5 19.7281 2.72692 19.8935 3.05395L11.0001 9.27934L2.10666 3.05394ZM0.000132482 3.48282C-2.62457e-05 3.49259 -4.22398e-05 3.50234 8.3921e-05 3.5121V15.5C8.3921e-05 17.1523 1.3478 18.5 3.00008 18.5H19.0001C20.6524 18.5 22.0001 17.1523 22.0001 15.5V3.51236C22.0002 3.50241 22.0002 3.49246 22 3.4825C21.9906 1.83821 20.6465 0.5 19.0001 0.5H3.00008C1.35353 0.5 0.0094332 1.83839 0.000132482 3.48282ZM20.0001 5.42065V15.5C20.0001 16.0477 19.5478 16.5 19.0001 16.5H3.00008C2.45237 16.5 2.00008 16.0477 2.00008 15.5V5.42065L10.4266 11.3192C10.7709 11.5603 11.2292 11.5603 11.5735 11.3192L20.0001 5.42065Z" fill="#4E555B"/>
</svg>
