<svg width="22" height="23" viewBox="0 0 22 23" fill="none" xmlns="http://www.w3.org/2000/svg">
<path fill-rule="evenodd" clip-rule="evenodd" d="M8.72571 2.78983C5.16881 3.71597 2.46801 6.76324 2.05493 10.5H6.05009C6.2743 7.73681 7.1991 5.08442 8.72571 2.78983ZM13.2743 2.78983C14.8009 5.08442 15.7257 7.73681 15.9499 10.5H19.9451C19.532 6.76324 16.8312 3.71597 13.2743 2.78983ZM13.9424 10.5C13.6912 7.78683 12.6697 5.20193 11 3.0508C9.33032 5.20193 8.30879 7.78683 8.05759 10.5H13.9424ZM8.05759 12.5H13.9424C13.6912 15.2132 12.6697 17.7981 11 19.9492C9.33032 17.7981 8.30879 15.2132 8.05759 12.5ZM6.05009 12.5H2.05493C2.46801 16.2368 5.16881 19.284 8.72571 20.2102C7.1991 17.9156 6.2743 15.2632 6.05009 12.5ZM13.2743 20.2102C14.8009 17.9156 15.7257 15.2632 15.9499 12.5H19.9451C19.532 16.2368 16.8312 19.284 13.2743 20.2102ZM11 22.5C17.0751 22.5 22 17.5751 22 11.5C22 5.42487 17.0751 0.5 11 0.5C4.92487 0.5 0 5.42487 0 11.5C0 17.5751 4.92487 22.5 11 22.5Z" fill="#4E555B"/>
</svg>
