<svg width="22" height="23" viewBox="0 0 22 23" fill="none" xmlns="http://www.w3.org/2000/svg">
<path fill-rule="evenodd" clip-rule="evenodd" d="M21.9976 1.42989C21.9813 1.19781 21.8845 0.970313 21.7071 0.792893C21.4207 0.506446 21.0037 0.430106 20.6476 0.563874L0.669655 7.55617C0.282654 7.69162 0.0175501 8.04959 0.000836285 8.45926C-0.0158775 8.86894 0.219186 9.24731 0.593867 9.41384L9.2424 13.2576L13.0862 21.9062C13.2527 22.2808 13.6311 22.5159 14.0408 22.4992C14.4504 22.4825 14.8084 22.2174 14.9439 21.8304L21.9367 1.85073C21.9872 1.71569 22.0075 1.57194 21.9976 1.42989ZM17.1943 3.89151L3.71108 8.61063L9.77852 11.3073L17.1943 3.89151ZM11.1927 12.7215L18.6085 5.30567L13.8894 18.789L11.1927 12.7215Z" fill="#4E555B"/>
</svg>
