<svg width="24" height="21" viewBox="0 0 24 21" fill="none" xmlns="http://www.w3.org/2000/svg">
<path d="M8.22548 20.4378C5.62548 20.4378 2.92548 19.7378 0.525483 18.3378C0.125483 18.1378 -0.0745166 17.6378 0.0254834 17.2378C0.125483 16.8378 0.525483 16.5378 0.925483 16.5378C2.62548 16.6378 4.32548 16.2378 5.82548 15.5378C-1.77452 10.9378 1.92548 2.23775 2.02548 2.13775C2.12548 1.83775 2.42548 1.53775 2.82548 1.53775C3.22548 1.53775 3.52548 1.63775 3.72548 1.93775C5.42548 4.33775 8.02548 5.83775 10.9255 6.03775C10.9255 4.43775 11.6255 2.93775 12.8255 1.83775C14.9255 0.0377533 18.0255 0.0377535 20.0255 1.93775C20.8255 1.63775 21.6255 1.23775 22.3255 0.737753C22.6255 0.537753 23.1255 0.537753 23.4255 0.737753C23.7255 0.937753 23.9255 1.43775 23.8255 1.83775C23.5255 3.23775 22.8255 4.53775 21.8255 5.63775C21.8255 5.83775 21.8255 5.93775 21.8255 6.13775C21.8255 11.6378 19.4255 16.2378 15.1255 18.6378C13.1255 19.8378 10.7255 20.4378 8.22548 20.4378ZM4.92548 18.0378C8.12548 18.8378 11.5255 18.4378 14.3255 16.8378C17.9255 14.7378 20.0255 10.7378 20.0255 6.03775C20.0255 5.83775 20.0255 5.63775 19.9255 5.43775C19.8255 5.13775 19.9255 4.73775 20.2255 4.53775C20.4255 4.33775 20.6255 4.03775 20.8255 3.83775C20.6255 3.93775 20.3255 4.03775 20.1255 4.03775C19.7255 4.13775 19.3255 4.03775 19.1255 3.73775C17.8255 2.33775 15.6255 2.13775 14.2255 3.43775C13.3255 4.03775 12.9255 5.03775 12.9255 6.03775V7.03775C12.9255 7.53775 12.5255 8.03775 11.9255 8.03775C8.62548 8.13775 5.52548 6.83775 3.32548 4.53775C2.72548 7.13775 2.52548 12.0378 8.32548 14.5378C8.62548 14.7378 8.92548 15.0378 8.92548 15.4378C8.92548 15.8378 8.82548 16.1378 8.52548 16.3378C7.32548 17.1378 6.12548 17.7378 4.92548 18.0378Z" fill="#4E555B"/>
</svg>
